# xmcd CD database file
#
# Track frame offsets:
#	150
#	3183
#	23704
#	51646
#	71146
#	93123
#	110172
#	133550
#	155546
#	161900
#	181416
#	201410
#	219515
#	245565
#	267845
#	268523
#	282224
#	300733
#	305214
#
# Disc length: 4317 seconds
#
# Revision: 0
# Processed by: cddbd v1.5.1PL0 Copyright (c) Steve Scherf et al.
# Submitted via: Feurio! 1.67 - http://www.feurio.com
#
DISCID=1e10db13
DTITLE=Kindred The Family Soul - CD sconosciuto #1E10DB13C97E9F1C
DYEAR=2003
DGENRE=R&B
TTITLE0=Ryva [live] - (Dantzler/Parker)
TTITLE1=Surrender to Love - (Bell/Dantzler/Graydon)
TTITLE2=Rhythm of Life - (Dantzler/Graydon/Perry)
TTITLE3=Far Away - (Dantzler/Graydon/Perry)
TTITLE4=Weather the Storm - (Dantzler/Dupee/Graydon/Hibbler/Rickette)
TTITLE5=We [with Ursula Rucker]
TTITLE6=Stars - (Dantzler/Davis/Graydon/Harris)
TTITLE7=I Am  [with Jazmine Sullivan]
TTITLE8=Family Song [Reprise] - (Eyen/Krieger)
TTITLE9=What Happens Now - (Dantzler/Dupee/Graydon/n/Patterson)
TTITLE10=Meant to Be - (Dantzler/Dupee/Graydon/Patterson)
TTITLE11=Contentment - (Bell/Graydon)
TTITLE12=Spread the Word - 
TTITLE12=(Allen/Brown/Dantzler/Dickerson/Goldstein/Graydon/Jordan/Oskar)
TTITLE13=If I - (Cave/Dantzler/Graydon/Poyser/Wilson/Wilson/Wilson)
TTITLE14=Entertain the Peoplez [Interlude] - (Dantzler/Dantzler)
TTITLE15=Don't Wanna Suffer [Carbon Copy] - (Buchanan/Dantzler/Graydon/Poyser)
TTITLE16=Party's Over (with Flo Brown - Malik B)
TTITLE17=Freedom - (Dantzler/Graydon)
TTITLE18=Rhythm of Life [King Britt Remix] - (Dantzler/Graydon/Perry)
EXTD=Released: February 25, 2003\r\n\r\nTHE BAND\r\nAja Graydon/ Fatin 
EXTD=Dantzler - Vocals (Kindred)\r\nStan Davis - keyboards\r\nJulian Brown - 
EXTD=Drums\r\nDaud El-Bakara - Trumpet\r\nTamara Hudson -Backing 
EXTD=vocals\r\nStacey McGee-Bass\r\nRichard 
EXTD=Tucker-Guitar\r\n\r\nGUESTS\r\nUrsula Rucker, Musiq, Bilal, Aaries, Jill 
EXTD=Scott. Flo Brown. Malik B \r\n\r\nPRODUCERS\r\nAnthoney 
EXTD=Bell(2,12)\r\nElise Perry(3,4)\r\nIvon Dupee(5,8,10,11)\r\nKindred The 
EXTD=Family Soul and Chuck Treese(6)\r\nAndre Harris and Vidal 
EXTD=Davis(7)\r\nKindred The Family Soul(9,13,18)\r\nJames Poyser(14,16,17) \r\n
EXTT0=
EXTT1=
EXTT2=
EXTT3=
EXTT4=
EXTT5=
EXTT6=
EXTT7=
EXTT8=
EXTT9=
EXTT10=
EXTT11=
EXTT12=
EXTT13=
EXTT14=
EXTT15=
EXTT16=
EXTT17=
EXTT18=
PLAYORDER=
